# xmcd
#
# Track frame offsets:
#  150
#  14553
#  27882
#  41967
#  54474
#  65854
#  81319
#  94001
#  108973
#  117199
#  132466
#  144503
#  158325
#  171128
#  185388
#  200108
#  210173
#  226043
#  238211
#  251124
#  265297
#  277914
#  295219
#  308263
#  321241
#
# Disc length: 4474 seconds
#
# Revision: 0
# Processed by: cddbd v1.5.2PL0 Copyright (c) Steve Scherf et al.
# Submitted via: AltoMP3_Maker 3.0
#
DISCID=66117819
DTITLE=Terry Brooks - High Druid of Shannara: Straken
DYEAR=1900
DGENRE=
TTITLE0=Disk 01-01
TTITLE1=Disk 01-02
TTITLE2=Disk 01-03
TTITLE3=Disk 01-04
TTITLE4=Disk 01-05
TTITLE5=Disk 01-06
TTITLE6=Disk 01-07
TTITLE7=Disk 01-08
TTITLE8=Disk 01-09
TTITLE9=Disk 01-10
TTITLE10=Disk 01-11
TTITLE11=Disk 01-12
TTITLE12=Disk 01-13
TTITLE13=Disk 01-14
TTITLE14=Disk 01-15
TTITLE15=Disk 01-16
TTITLE16=Disk 01-17
TTITLE17=Disk 01-18
TTITLE18=Disk 01-19
TTITLE19=Disk 01-20
TTITLE20=Disk 01-21
TTITLE21=Disk 01-22
TTITLE22=Disk 01-23
TTITLE23=Disk 01-24
TTITLE24=Disk 01-25
EXTD=
EXTT0=
EXTT1=
EXTT2=
EXTT3=
EXTT4=
EXTT5=
EXTT6=
EXTT7=
EXTT8=
EXTT9=
EXTT10=
EXTT11=
EXTT12=
EXTT13=
EXTT14=
EXTT15=
EXTT16=
EXTT17=
EXTT18=
EXTT19=
EXTT20=
EXTT21=
EXTT22=
EXTT23=
EXTT24=
PLAYORDER=
